<?xml version="1.0" standalone="no"?>
<!DOCTYPE svg PUBLIC "-//W3C//DTD SVG 1.1//EN" "http://www.w3.org/Graphics/SVG/1.1/DTD/svg11.dtd" >
<svg xmlns="http://www.w3.org/2000/svg">
<metadata></metadata>
<defs>
<font id="rufinaregular" horiz-adv-x="1579" >
<font-face units-per-em="2048" ascent="1638" descent="-410" />
<missing-glyph horiz-adv-x="520" />
<glyph horiz-adv-x="0" />
<glyph unicode="&#xd;" horiz-adv-x="681" />
<glyph unicode=" "  horiz-adv-x="520" />
<glyph unicode="&#x09;" horiz-adv-x="520" />
<glyph unicode="&#xa0;" horiz-adv-x="520" />
<glyph unicode="!" horiz-adv-x="550" d="M162 93q0 50 33.5 86t84 36t85 -36t34.5 -85t-33.5 -84t-85 -35t-85 34t-33.5 84zM174 1130.5q0 182.5 39 221.5q25 27 78 26.5t106 -8.5q-35 -166 -63 -491l-29 -492l-26 -2q-25 0 -39.5 15.5t-16.5 31.5q-14 88 -31.5 302t-17.5 396.5z" />
<glyph unicode="&#x22;" horiz-adv-x="716" d="M113 1386h178l-45 -460h-90zM426 1386h178l-45 -460h-90z" />
<glyph unicode="#" horiz-adv-x="1449" d="M84 410l20 114h330l58 316h-330l20 114h326l76 414h114l-69 -414h309l76 414h114l-69 -414h307l-20 -114h-304l-57 -316h303l-18 -114h-303l-76 -410h-117l72 410h-309l-76 -410h-117l72 410h-332zM555 524h309l58 316h-310z" />
<glyph unicode="$" horiz-adv-x="1165" d="M74 215q0 100 145 137q31 -168 125 -241.5t215 -81.5v571q-272 109 -342 191q-82 90 -82 228t106.5 245.5t317.5 130.5v243h94v-239q164 0 280 -72t116 -186q0 -61 -43 -97t-86 -36t-78 10q8 43 8 112.5t-48 136t-149 79.5v-564q55 -16 142.5 -55t113 -57.5t62.5 -51 t55 -65.5q45 -84 45 -182q0 -156 -114.5 -261.5t-303.5 -127.5v-248h-94v241q-262 4 -403 103q-82 57 -82 137zM336 1079.5q0 -100.5 58.5 -158t164.5 -102.5v524q-104 -16 -163.5 -89.5t-59.5 -174zM653 33q97 16 162.5 81.5t65.5 171t-58.5 165t-169.5 108.5v-526z" />
<glyph unicode="%" horiz-adv-x="1501" d="M80 1059q0 127 91 217t218 90t218 -90t91 -217t-91 -217t-218 -90t-218 90t-91 217zM190 1059q0 -86 58.5 -148.5t140.5 -62.5t140.5 62.5t58.5 148.5t-58.5 148.5t-140.5 62.5t-140.5 -62.5t-58.5 -148.5zM219 2l965 1395l80 -56l-928 -1339h-117zM805 301q0 127 91 217 t218 90t218 -90t91 -217t-91 -217t-218 -90t-218 90t-91 217zM915 301q0 -86 58.5 -148.5t140.5 -62.5t140.5 62.5t58.5 148.5t-58.5 148.5t-140.5 62.5t-140.5 -62.5t-58.5 -148.5z" />
<glyph unicode="&#x26;" horiz-adv-x="1634" d="M104 334q0 127 92.5 227.5t245.5 145.5q-170 150 -170 335q0 143 98.5 240.5t261.5 97.5t262 -83t99 -212q0 -18 -2 -36q-14 -133 -119.5 -220.5t-203.5 -91.5l-13 8q106 -113 398 -403q47 117 47 232.5t-15 195.5q27 14 48 14q51 0 51 -114q0 -219 -76 -381l6 -6 q220 -209 408 -209q35 0 75 6q0 -27 -32 -55q-59 -49 -191 -50q-201 0 -377 156q-158 -154 -424 -154q-195 0 -331 92.5t-138 264.5zM326 346q0 -125 85 -206t205 -81q201 0 328 121q-70 78 -221.5 231.5t-222.5 237.5l-8 8q-166 -116 -166 -311zM442 1087q0 -57 28 -113 t51.5 -83t99.5 -109q184 84 184 332q0 88 -47 149.5t-131 61.5t-134.5 -62.5t-50.5 -175.5z" />
<glyph unicode="'" horiz-adv-x="403" d="M113 1386h178l-45 -460h-90z" />
<glyph unicode="(" horiz-adv-x="583" d="M80 522.5q0 182.5 41 360.5t98 303q117 254 213 366l41 50l47 -35q-242 -451 -241 -1047q0 -283 65.5 -567.5t181.5 -474.5l-47 -35q-57 66 -132 184.5t-128 236.5t-96 297t-43 361.5z" />
<glyph unicode=")" horiz-adv-x="583" d="M57 -522q117 190 182.5 474.5t65.5 567.5q0 596 -242 1047l48 35q49 -49 126.5 -175.5t129 -244t94.5 -297.5t43 -362.5t-41 -359.5t-98 -302q-121 -256 -220 -369l-41 -49z" />
<glyph unicode="*" horiz-adv-x="921" d="M127 1221l68 96l219 -209l-13 289h119l-10 -289l213 203l68 -90l-263 -166l260 -170l-65 -90l-213 196l10 -282h-114l8 282l-215 -203l-66 91l273 176z" />
<glyph unicode="+" horiz-adv-x="1120" d="M98 412v129h387v393h140v-393h395v-129h-395v-412h-140v412h-387z" />
<glyph unicode="," horiz-adv-x="505" d="M106 -248q66 35 111 100.5t53 137.5q-20 -12 -59 -12.5t-65.5 33.5t-26.5 90.5t40 89t99 32.5t95 -41t36 -125q0 -117 -92 -219t-158 -131z" />
<glyph unicode="-" horiz-adv-x="872" d="M139 481v135h594v-135h-594z" />
<glyph unicode="." horiz-adv-x="477" d="M117 97.5q0 52.5 34.5 88t86 35.5t87 -37t35.5 -87t-34.5 -86t-87 -36t-87 35t-34.5 87.5z" />
<glyph unicode="/" horiz-adv-x="731" d="M94 0l412 1368h131l-412 -1368h-131z" />
<glyph unicode="0" horiz-adv-x="1251" d="M115 499.5q0 225.5 140 374t370.5 148.5t371 -148.5t140.5 -374t-140.5 -374t-371 -148.5t-370.5 148.5t-140 374zM338 500q0 -226 71.5 -349.5t216 -123.5t216 123.5t71.5 349.5q0 471 -287.5 471t-287.5 -471z" />
<glyph unicode="1" horiz-adv-x="700" d="M111 0v49l141 10v881l-141 8v49h479v-49l-141 -10v-879l141 -10v-49h-479z" />
<glyph unicode="2" horiz-adv-x="1044" d="M121 0v96q188 94 358 260q88 86 143.5 192.5t55.5 206t-47 154t-135 54.5t-144.5 -68t-56.5 -156q0 -33 6 -69q-41 -18 -71.5 -18.5t-53.5 12.5q-51 29 -51 102q0 115 112.5 185.5t269.5 70.5t266.5 -69.5t109.5 -217.5q0 -100 -60.5 -200.5t-152.5 -174.5 q-174 -139 -328 -204h596v-156h-817z" />
<glyph unicode="3" horiz-adv-x="1110" d="M80 -127q0 72 47 107q27 20 62.5 20t72.5 -10q-4 -31 -4 -58q0 -98 53 -172q72 -96 207 -96t207 91t72 236.5t-95.5 230.5t-252.5 85q-49 0 -93 -8v57q170 8 288 103.5t118 269.5q0 113 -62.5 175.5t-156.5 62.5t-162 -78q-49 -53 -49 -139q0 -33 8 -72 q-43 -18 -75 -18.5t-54 12.5q-51 29 -51 102q0 113 115.5 182.5t248.5 69.5t222.5 -28.5t155 -104.5t65.5 -189.5t-83 -215t-229 -126.5q154 -16 253.5 -106t99.5 -256t-136.5 -279.5t-354.5 -113.5t-327.5 74.5t-109.5 191.5z" />
<glyph unicode="4" horiz-adv-x="1214" d="M39 113l674 886h166v-847h276v-107h-276v-414h-195v414h-616zM184 150h500v673z" />
<glyph unicode="5" horiz-adv-x="1091" d="M76 -127q0 74 47 111q27 18 59.5 18t67.5 -12q-6 -33 -6 -66q0 -88 51 -157q68 -98 202 -98.5t202.5 100t70.5 251.5q0 367 -381 367q-104 0 -196 -29l63 641h711l-13 -159h-624l-39 -373q109 20 208 20t180 -21.5t151.5 -67.5t111.5 -134t41 -209q0 -193 -137 -319.5 t-347 -126.5t-316.5 75.5t-106.5 188.5z" />
<glyph unicode="6" horiz-adv-x="1175" d="M125 659.5q0 329.5 152.5 533.5t396.5 204q150 0 256 -68.5t106 -179.5q0 -57 -40 -93t-82 -36t-68 12q8 41 8 86q0 88 -48 154.5t-140 66.5q-332 0 -332 -706q0 -274 68.5 -433t211.5 -159q113 0 170.5 92t57.5 257t-67.5 242t-180.5 77q-74 0 -162 -33l-22 57 q119 74 269 74t264 -99.5t114 -290t-124 -315.5t-347.5 -125t-342 176.5t-118.5 506z" />
<glyph unicode="7" horiz-adv-x="960" d="M59 840l17 159h870l-676 -1398l-80 39l576 1200h-707z" />
<glyph unicode="8" horiz-adv-x="1161" d="M117 308.5q0 142.5 89 243.5t240 144q-131 70 -198.5 149t-67.5 204q0 162 115 256t307.5 94t291.5 -85t99 -218t-92 -225.5t-192 -102.5q168 -86 250.5 -168t82.5 -217q0 -174 -133 -290t-347 -116t-329.5 94.5t-115.5 237zM322 305.5q0 -110.5 74.5 -187.5t183 -77 t191.5 70.5t83 193.5t-82 198t-244 156q-100 -57 -153 -150t-53 -203.5zM354 1094.5q0 -111.5 71 -175t212 -118.5q170 84 170 301q0 115 -63.5 176t-155.5 61t-163 -66.5t-71 -178z" />
<glyph unicode="9" horiz-adv-x="1153" d="M109 586.5q0 189.5 126.5 315.5t352 126t342.5 -168t117 -465q0 -373 -144.5 -580.5t-384.5 -207.5q-164 0 -276.5 69.5t-112.5 186.5q0 74 51 100q23 14 53.5 14t71.5 -18q-6 -37 -6 -72q0 -90 58.5 -156.5t147.5 -66.5t145.5 37t90 104.5t54 136t28.5 164.5 q14 139 15 304q0 559 -271 559q-115 0 -179 -94.5t-64 -256.5q0 -322 241 -321q82 0 174 33l21 -58q-121 -74 -276.5 -73.5t-265 99.5t-109.5 288.5z" />
<glyph unicode=":" horiz-adv-x="522" d="M139 97.5q0 52.5 35 88t86 35.5t87 -37t36 -87t-35 -86t-87 -36t-87 35t-35 87.5zM139 785.5q0 52.5 35 88t86 35.5t87 -36.5t36 -87t-35 -86t-87 -35.5t-87 34.5t-35 87z" />
<glyph unicode=";" horiz-adv-x="575" d="M143 -248q66 35 111 100.5t53 137.5q-20 -12 -59 -12.5t-65.5 33.5t-26.5 90.5t40 89t99 32.5t95 -41t36 -125q0 -117 -92 -219t-158 -131zM170 785.5q0 52.5 35 88t86 35.5t87 -36.5t36 -87t-35 -86t-87 -35.5t-87 34.5t-35 87z" />
<glyph unicode="&#x3c;" horiz-adv-x="1103" d="M84 426v96l846 418l51 -109l-743 -350l743 -364l-55 -113z" />
<glyph unicode="=" horiz-adv-x="1232" d="M156 281v129h921v-129h-921zM156 543v129h921v-129h-921z" />
<glyph unicode="&#x3e;" horiz-adv-x="1103" d="M123 117l743 364l-743 350l51 109l846 -418v-96l-842 -422z" />
<glyph unicode="?" horiz-adv-x="894" d="M86 1149q0 121 108.5 194.5t266.5 73.5q358 0 358 -293q0 -92 -62.5 -184t-135.5 -154q-199 -165 -199 -249q-2 -6 -2 -22.5t18 -65.5q-45 -14 -78 -15q-86 0 -86 98q0 127 123 250l105 105q123 123 123 258q0 211 -166 211q-94 0 -156 -82q-45 -59 -45 -158q0 -33 6 -69 q-37 -12 -69.5 -12.5t-59.5 14.5q-49 31 -49 100zM248 97.5q0 52.5 34.5 88t86 35.5t87.5 -37t36 -87t-35 -86t-87.5 -36t-87 35t-34.5 87.5z" />
<glyph unicode="@" horiz-adv-x="1665" d="M115 664q0 291 196 503q96 104 253 166t356 62q281 0 465 -148.5t184 -419.5q0 -125 -42 -228t-110 -165q-137 -127 -282 -127q-115 0 -156 74q-8 18 -12 43q-76 -135 -246 -135q-84 0 -142.5 48t-56.5 132q14 229 457 229l6 131v17q0 172 -133 172q-72 0 -111 -49 t-39 -117q0 -20 5 -45q-23 -12 -53.5 -12t-55.5 19.5t-25 53.5q6 100 94.5 145.5t180.5 45.5q150 0 207 -58.5t57 -177.5v-16l-14 -342q-4 -92 82 -92q90 0 156.5 117.5t66.5 322.5q0 252 -133 384t-371 132q-158 0 -280.5 -56t-194.5 -151q-143 -188 -143 -460.5 t141 -442.5t420 -170q150 0 285 41t196 82l59 41l29 -49q-18 -18 -87 -58t-130 -65q-164 -66 -352 -66q-322 0 -524.5 195t-202.5 494zM672 461q0 -51 28.5 -80t86 -29t118 51.5t66.5 128.5l6 127q-305 1 -305 -198z" />
<glyph unicode="A" horiz-adv-x="1386" d="M-20 0v49l155 53l504 1266h100l535 -1300l158 -19v-49h-553v43l159 25l-180 471h-461l-172 -437l183 -53v-49h-428zM426 614h401l-200 498z" />
<glyph unicode="B" horiz-adv-x="1292" d="M74 1319v49h579q248 0 359.5 -80t111.5 -227.5t-78.5 -234.5t-230.5 -103q199 -35 289 -118t90 -234q0 -188 -155.5 -279.5t-403.5 -91.5h-537v49l154 19v1232zM467 57q51 -14 93 -14t100.5 6t135 34t128 107.5t51.5 196.5q0 228 -236 277q-78 16 -151.5 16t-120.5 -2 v-621zM467 739h86q346 0 346 316q0 137 -70.5 197.5t-228.5 60.5h-133v-574z" />
<glyph unicode="C" horiz-adv-x="1449" d="M104 672q0 170 67 314t181 228q228 168 541 168l422 -18l12 -373h-65l-70 269q-111 47 -262 47q-248 0 -411 -163t-163 -474.5t159 -460t407 -148.5q166 0 297 50l75 235l58 -2l-13 -307q-236 -49 -404.5 -49t-278 18.5t-214 65.5t-177 120.5t-117 191.5t-44.5 288z" />
<glyph unicode="D" horiz-adv-x="1642" d="M80 0v53l178 17v1226l-178 23v53q125 -6 252 -6l397 10q182 0 319.5 -30.5t251.5 -104.5q233 -150 234 -555q0 -686 -836 -686h-618zM473 72l225 -6q211 8 312 53q272 125 274 565q0 172 -39 295t-83 182.5t-134 94t-131 38.5t-99.5 7.5t-137 3.5t-187.5 -11v-1222z" />
<glyph unicode="E" horiz-adv-x="1222" d="M80 0v49l178 19v1232l-178 23v45h981l2 -291h-53l-70 217l-471 6v-550h414l63 151h41v-381h-43l-61 156h-414v-610l532 6l97 233h53l-25 -305h-1046z" />
<glyph unicode="F" horiz-adv-x="1155" d="M80 0v49l178 19v1230l-178 25v45h993l2 -291h-53l-70 217l-483 6v-585h426l63 151h41v-381h-43l-61 156h-426v-573l178 -19v-49h-567z" />
<glyph unicode="G" horiz-adv-x="1529" d="M104 672q0 170 67 314t181 228q227 168 541 168l422 -18l12 -373h-65l-70 269q-111 47 -262 47q-248 0 -411 -163t-163 -474.5t159 -460t407 -148.5q121 0 221 25v436l-170 19v49h493v-49l-123 -19v-485q-197 -49 -450 -49q-426 0 -627 205q-74 74 -118 191.5t-44 287.5z " />
<glyph unicode="H" horiz-adv-x="1665" d="M80 0v49l178 19v1232l-178 19v49h567v-49l-178 -19v-550h727v550l-178 19v49h567v-49l-178 -19v-1232l178 -19v-49h-567v49l178 19v608h-727v-608l178 -19v-49h-567z" />
<glyph unicode="I" horiz-adv-x="727" d="M80 0v49l178 19v1232l-178 19v49h567v-49l-178 -19v-1232l178 -19v-49h-567z" />
<glyph unicode="J" horiz-adv-x="698" d="M-303 -315q0 43 38 74.5t81 31.5t69 -8q-12 -43 -12 -80q0 -137 131 -137q240 0 240 428v1306l-178 19v49h567v-49l-178 -19v-1191q0 -449 -248 -568q-96 -45 -221 -45t-207 43t-82 146z" />
<glyph unicode="K" horiz-adv-x="1441" d="M80 0v49l178 19v1232l-178 19v49h567v-49l-178 -19v-585l592 559l-146 45v49h416v-47l-168 -55l-530 -504l672 -690l163 -15v-57h-594v57l146 13l-551 585v-587l178 -19v-49h-567z" />
<glyph unicode="L" horiz-adv-x="1163" d="M80 0v49l178 19v1232l-178 19v49h567v-49l-178 -19v-1234l516 6l96 233h54l-25 -305h-1030z" />
<glyph unicode="M" horiz-adv-x="1859" d="M70 0v49l170 60l41 1191l-175 21v47h363l487 -1141l420 1141h381v-47l-174 -21l45 -1239l158 -12v-49h-520v43l155 18l-53 1057l-412 -1118h-108l-492 1108l-39 -1008l172 -51v-49h-419z" />
<glyph unicode="N" horiz-adv-x="1634" d="M78 1321v47h336l868 -1051v955l-158 47v49h414v-49l-143 -47v-1272h-113l-938 1124v-1024l170 -51v-49h-422v49l164 51v1200z" />
<glyph unicode="O" d="M102 688q0 307 187.5 509t501 202t500 -202t186.5 -509t-186.5 -509t-500 -202t-501 202t-187.5 509zM352 688q1 -647 441 -647q434 0 434 647q0 311 -99.5 479t-337 168t-338 -167t-100.5 -480z" />
<glyph unicode="P" horiz-adv-x="1218" d="M74 1323v49h383l243 6q465 0 465 -352q0 -115 -49 -196.5t-133 -124.5q-158 -78 -377 -78q-53 0 -143 8v-576l158 -10v-49h-523v49l154 10v1241zM463 694q31 -4 90 -4q186 0 286.5 90t100.5 243t-71.5 223.5t-229.5 70.5q-70 0 -176 -8v-615z" />
<glyph unicode="Q" horiz-adv-x="1581" d="M104 689q0 306 186.5 508t502 202t501 -203t185.5 -502t-163 -496.5t-442 -224.5q-193 -113 -290 -153l2 -4q65 27 169 27q2 0 4 -1q107 0 317 -80.5t280 -80.5q100 0 162 118l47 -20q-90 -248 -330 -248q-135 0 -455.5 111.5t-464.5 111.5l7 31q225 59 436 186 q-301 12 -477.5 212t-176.5 506zM354 684q1 -651 441 -651q434 0 434 651q0 315 -99.5 483t-337 168t-338 -168t-100.5 -483z" />
<glyph unicode="R" horiz-adv-x="1347" d="M74 1325v53q131 -6 280 -6h105l233 6q465 0 465 -350q0 -152 -103.5 -249t-267.5 -97q-14 0 -51 4v-4q219 -31 302 -142.5t83 -340.5q0 -143 54 -166q24 -17 68 -17h2q43 0 112 27v-51q-109 -39 -199 -39q-201 0 -248 172q-12 45 -13 127t-7 145.5t-29 126.5 q-51 137 -282 138h-115v-603l158 -14v-45h-523v43l154 16v1246zM463 721h102q367 0 367 307q0 152 -72 220.5t-229 68.5q-61 0 -168 -8v-588z" />
<glyph unicode="S" horiz-adv-x="1165" d="M80 215q0 100 145 137q23 -123 86.5 -198.5t132 -100t168 -24.5t187.5 64.5t88 211.5q0 113 -103 184q-82 55 -201.5 104.5t-160.5 67t-105.5 55.5t-95.5 75q-80 96 -80 221q0 193 137.5 291t378.5 98q145 0 338 -33v-301h-63l-70 233q-111 39 -227.5 39t-204.5 -66.5 t-88 -197.5q0 -127 109 -194q59 -37 97 -53.5t110.5 -43t99 -38t79 -35t78 -42t62.5 -51t55 -65.5q45 -84 45 -182q0 -174 -141 -285t-367 -111q-172 0 -321 58q-74 27 -121 74t-47 108z" />
<glyph unicode="T" horiz-adv-x="1282" d="M43 1057v309l598 4l598 -4v-309h-61l-70 235l-363 4v-1228l191 -19v-49h-592v49l191 19v1228l-363 -4l-70 -235h-59z" />
<glyph unicode="U" horiz-adv-x="1486" d="M55 1315v53h555v-53l-184 -15v-808q0 -229 89 -337t281.5 -108t286 102.5t93.5 348.5v790l-152 21v59h406v-63l-166 -17v-809q0 -154 -42 -247t-93.5 -142t-141.5 -82t-211 -33q-283 0 -421 114t-138 362v849z" />
<glyph unicode="V" horiz-adv-x="1376" d="M-51 1325v43h553v-43l-164 -22l416 -1047l399 1010l-180 53v49h428v-49l-156 -55l-508 -1276h-92l-539 1315z" />
<glyph unicode="W" horiz-adv-x="2117" d="M-41 1325v43h553v-43l-164 -18l375 -1051l295 745l-115 306l-158 18v43h553v-43l-163 -18l374 -1051l389 1010l-180 53v49h428v-49l-155 -55l-498 -1276h-92l-340 897l-354 -897h-93l-497 1319z" />
<glyph unicode="X" horiz-adv-x="1466" d="M-6 1319v49h541v-43l-144 -18l377 -498l365 453l-172 45v61h454v-61l-162 -45l-430 -529l480 -665l165 -19v-49h-596v49l166 19l-344 497l-364 -461l176 -43v-61h-461v61l154 41l444 545l-502 658z" />
<glyph unicode="Y" horiz-adv-x="1337" d="M-66 1323v45h553v-43l-157 -22l405 -609l350 578l-153 47v49h416v-49l-156 -49l-408 -666v-536l179 -19v-49h-568v49l178 19v520l-483 712z" />
<glyph unicode="Z" horiz-adv-x="1343" d="M88 23v57l893 1210l-748 4l-69 -227h-53v301l1136 4v-63l-885 -1205l756 -4l70 226h53v-299z" />
<glyph unicode="[" horiz-adv-x="684" d="M184 -594v2234h471v-120h-321v-1993h321v-121h-471z" />
<glyph unicode="\" horiz-adv-x="731" d="M94 1368h131l412 -1368h-131z" />
<glyph unicode="]" horiz-adv-x="684" d="M29 -473h321v1993h-321v120h471v-2234h-471v121z" />
<glyph unicode="^" horiz-adv-x="876" d="M106 1137l281 381h102l279 -381l-63 -39l-267 258l-268 -258z" />
<glyph unicode="_" horiz-adv-x="1298" d="M137 -205h1024v-121h-1024v121z" />
<glyph unicode="`" horiz-adv-x="798" d="M195 1434q0 51 108 120q25 -35 264 -385q-8 -10 -45 -43q-137 106 -299 256q-29 31 -28 52z" />
<glyph unicode="a" horiz-adv-x="1050" d="M82 221q2 158 158.5 236t447.5 78v176q0 260 -188 260q-96 0 -156 -80q-41 -55 -41 -137q0 -35 8 -74q-29 -20 -58.5 -20.5t-57.5 12.5q-66 25 -66 94q0 94 68 156q111 100 305 100t282 -83t88 -261v-621l172 -8l3 -47l-342 -25l-19 183q-94 -185 -321 -185 q-117 0 -200 64.5t-83 181.5zM283 221q0 -133 108 -158q25 -6 47 -6q78 0 162 66.5t88 179.5v176q-405 -4 -405 -258z" />
<glyph unicode="b" horiz-adv-x="1232" d="M-16 1526l383 43l-2 -439q0 -209 -11 -296h19q55 90 153.5 139t210.5 49q170 0 285 -118t115 -373t-137.5 -405.5t-391.5 -150.5q-57 0 -132 18.5t-122 49.5l-188 -66v1493l-180 9zM365 682l4 -569q98 -76 243 -76q78 0 134.5 32.5t88 82t50.5 124.5q27 119 27 299v7 q0 184 -64 280t-178.5 96t-209.5 -97t-95 -179z" />
<glyph unicode="c" horiz-adv-x="1040" d="M94 499.5q0 235.5 140 379t376 143.5q115 0 221 -49q59 -27 95.5 -82t36.5 -129t-66 -100q-27 -10 -57 -10q-1 0 -1 -1q-29 0 -59 21q8 43 8 101t-36 112q-53 80 -152 80q-285 0 -285 -469q0 -229 67 -345t216 -116q190 0 305 184q45 -14 45 -44t-38 -74t-131 -84 t-214 -40q-211 0 -341 143.5t-130 379z" />
<glyph unicode="d" horiz-adv-x="1255" d="M94 472q0 251 146.5 396.5t390.5 145.5q127 0 239 -60v516l-180 9l-2 47l379 43v-1522l174 -8l2 -47l-362 -25l4 197h-13q-49 -92 -149 -143.5t-211 -51.5q-176 0 -297 126t-121 377zM322 457q0 -424 229 -424q129 0 224 98t95 182v564q-97 75 -239 75h-4 q-182 0 -250 -149q-55 -127 -55 -346z" />
<glyph unicode="e" horiz-adv-x="1077" d="M94 499.5q0 235.5 136.5 379t343 143.5t309 -93t102.5 -259q0 -49 -8 -99h-662v-71q0 -229 65.5 -347t215.5 -118q211 0 326 184q45 -14 45 -43q0 -51 -95 -119q-45 -33 -126.5 -56.5t-182.5 -23.5q-211 0 -340 143.5t-129 379zM322 645h464q5 35 5 68q0 94 -39 161 q-53 90 -172 91q-221 0 -258 -320z" />
<glyph unicode="f" horiz-adv-x="749" d="M61 946v53h144v31q0 272 114.5 409.5t327.5 137.5q127 0 212 -48t85 -129t-55 -118q-32 -23 -63 -23l-2 1q-31 0 -60 12q12 57 12 110.5t-37 94.5t-102.5 41t-111.5 -36t-68.5 -84t-34.5 -128q-16 -106 -16 -271h309v-53h-309v-887l229 -10l2 -49h-569l-2 49l139 8v889 h-144z" />
<glyph unicode="g" horiz-adv-x="1062" d="M74 -252q0 84 55 159t162 105q-125 45 -125 150q0 61 63.5 103t143.5 52q-129 37 -199 128.5t-70 213.5q0 158 118 260.5t319 102.5q57 0 125 -14q59 14 94 61q37 51 37 108.5t-6 98.5q29 12 57.5 12t56.5 -14q55 -29 56 -101q0 -69 -68 -123q-68 -53 -162 -61 q111 -41 170.5 -128t59.5 -202q0 -172 -132.5 -266t-324.5 -94q-72 -2 -118 -31.5t-46 -62.5q0 -47 66.5 -62.5t277.5 -34t303 -75t92 -180.5q0 -160 -150.5 -272.5t-390 -112.5t-352 76.5t-112.5 203.5zM231 -229q0 -109 89.5 -173.5t231.5 -64.5t255 71.5t115 180.5 q0 70 -45 104q-39 31 -109 41.5t-193.5 23.5t-212.5 32q-55 -29 -93 -89t-38 -126zM313 659q0 -317 213 -317q115 0 170.5 88t55.5 229q0 317 -211 318q-115 0 -171.5 -85t-56.5 -233z" />
<glyph unicode="h" horiz-adv-x="1241" d="M4 1526l383 43q-12 -702 -14 -750h16q55 94 148 144.5t204 50.5q328 0 328 -316q0 -227 -14 -639l145 -10v-49h-457v49l111 8q14 541 14 656.5t-43 173t-148.5 57.5t-197.5 -100.5t-92 -184.5v-600l135 -10v-49h-471v49l135 10v1411l-180 9z" />
<glyph unicode="i" horiz-adv-x="602" d="M37 936v47l381 27v-951l135 -10v-49h-471v49l135 10v871zM186 1334q0 52 35 88t86 36t87 -37t36 -87t-35 -86t-87 -36t-87 35t-35 87z" />
<glyph unicode="j" horiz-adv-x="565" d="M-340 -361.5q0 80.5 57 119.5q31 20 63 20.5t60 -11.5q-12 -57 -12 -110.5t37 -94.5t102.5 -41t111.5 35.5t68 83.5q52 110 52 399v893l-181 8v47l381 23v-1002q0 -272 -114.5 -409.5t-327.5 -137.5q-127 0 -212 48.5t-85 129zM164 1334q0 52 34.5 88t86 36t87.5 -37 t36 -87t-35 -86t-87.5 -36t-87 35t-34.5 87z" />
<glyph unicode="k" horiz-adv-x="1153" d="M2 1526l383 43v-1037l434 381l-133 39v47h401v-47l-151 -39l-391 -335l454 -515l138 -14v-49h-486v49l115 10l-381 449v-449l127 -10v-49h-461v49l133 10v1411l-180 9z" />
<glyph unicode="l" horiz-adv-x="581" d="M8 1479v47l383 43v-1510l135 -10v-49h-471v49l135 10v1411z" />
<glyph unicode="m" horiz-adv-x="1947" d="M43 934v47l367 25l-11 -211h21q55 109 148.5 164t203.5 55q276 0 320 -221v2q55 109 148 164t204 55q328 0 328 -316q0 -227 -15 -639l146 -10v-49h-457v49l110 8q14 552 15 659q0 114 -43 170q-43 58 -139.5 58t-178.5 -81t-110 -173q0 -221 -15 -631l146 -10v-49h-457 v49l111 8q14 541 14 656.5t-43 173t-148.5 57.5t-197.5 -111.5t-92 -197.5v-576l153 -10v-49h-487v49l133 8v869z" />
<glyph unicode="n" horiz-adv-x="1271" d="M43 934v47l367 25l-11 -222l19 -2q92 238 370 238q139 0 225.5 -83t86.5 -237q0 -264 -17 -641l142 -10v-49h-453v49l111 8q16 463 16 530.5t-2 103.5t-11 88t-28 83q-45 76 -141 76q-131 0 -215 -108.5t-84 -235.5v-535l153 -10v-49h-489v49l135 10v867z" />
<glyph unicode="o" horiz-adv-x="1206" d="M92 499.5q0 227.5 137.5 375t374 147.5t373.5 -147.5t137 -375t-137 -375t-373.5 -147.5t-374 147.5t-137.5 375zM315 500q0 -473 288 -473t288 473q0 229 -65.5 350t-221 121t-222.5 -121t-67 -350z" />
<glyph unicode="p" horiz-adv-x="1263" d="M23 942v47l368 23l-6 -178h18q55 90 153.5 139t211.5 49q170 0 284.5 -118t114.5 -373t-137 -405.5t-391 -150.5q-133 0 -240 60v-488l144 -10v-49h-471v49l127 10v1387zM399 113q98 -76 244 -76q78 0 134.5 32.5t88 82t47.5 124.5q29 121 29 305.5t-63.5 280.5t-178 96 t-208 -97t-93.5 -179v-569z" />
<glyph unicode="q" horiz-adv-x="1239" d="M94 472q0 251 146.5 396.5t390.5 145.5q57 0 132 -18.5t122 -49.5l188 66v-1465l154 -10v-49h-467v49l114 8q10 551 13 609h-17q-51 -86 -150 -135.5t-208 -49.5q-176 0 -297 126t-121 377zM322 457q0 -424 229 -424q129 0 224 95t95 179v570q-97 75 -239 75h-4 q-182 0 -250 -149q-55 -127 -55 -346z" />
<glyph unicode="r" horiz-adv-x="858" d="M49 940v47l363 23l-13 -252h9q35 111 128 188.5t183 77.5q53 0 84 -25.5t31 -70.5q0 -78 -60 -103q-33 27 -119 27t-164.5 -56.5t-78.5 -127.5v-609l184 -10v-49h-520v49l135 8v875z" />
<glyph unicode="s" horiz-adv-x="921" d="M76 162q0 84 125 110q37 -243 262 -243q82 0 142.5 45t60.5 151q0 72 -64.5 119t-161 85t-130.5 53.5t-89 49.5q-100 68 -100 195t100.5 211t292.5 84q123 0 210 -54.5t87 -130t-57 -104.5q-31 -14 -60.5 -14t-58.5 12q8 37 8 80t-20 86q-35 74 -133.5 74t-149.5 -53.5 t-51 -139.5q0 -88 73 -131q55 -35 137.5 -63.5t112 -40t78.5 -38t74 -54.5q63 -70 63 -189t-106.5 -202t-260 -83t-269 47.5t-115.5 137.5z" />
<glyph unicode="t" horiz-adv-x="741" d="M49 946v53h144l2 301h200l-6 -301h293v-53h-293q-10 -662 -10 -774q0 -137 90 -137q55 0 115.5 63.5t85.5 143.5q41 0 41 -29q0 -6 -2 -14q-33 -100 -110 -161t-179.5 -61t-171 58.5t-68.5 228.5q0 47 10 682h-141z" />
<glyph unicode="u" horiz-adv-x="1245" d="M27 942v47l364 23q-14 -541 -14 -736q0 -117 43 -174t144.5 -57t191.5 113.5t90 199.5v576l-170 8v47l371 23v-949l174 -8l2 -47l-369 -24l14 221h-24q-107 -230 -340 -230q-328 0 -328 316q0 231 14 643z" />
<glyph unicode="v" horiz-adv-x="1064" d="M4 950v49h430v-53l-139 -12l291 -715l245 688l-163 39v53h393v-53l-143 -39l-340 -907h-82l-396 936z" />
<glyph unicode="w" horiz-adv-x="1615" d="M4 950v49h422v-47l-135 -16l291 -717l180 477l-100 240l-84 10v53h413v-47l-137 -16l293 -717l254 688l-133 39v53h344v-53l-125 -39l-348 -907h-82l-250 592l-234 -592h-81l-396 936z" />
<glyph unicode="x" horiz-adv-x="1157" d="M31 948v51h434l-2 -49l-119 -16l266 -346l267 321l-158 39v51h393v-51l-143 -39l-318 -381l359 -467l116 -10v-51h-452v47l119 16l-252 336l-256 -309l151 -39v-51h-393v51l143 39l316 373l-373 475z" />
<glyph unicode="y" horiz-adv-x="1075" d="M0 -416.5q0 56.5 51 113.5q57 -66 129 -66q102 0 176 89.5t144 279.5l-394 934l-104 12v53h436v-53l-141 -12l293 -715l252 688l-164 39v53h393v-53l-143 -39l-346 -907q-37 -94 -57.5 -145.5t-66.5 -138.5t-88 -134t-105.5 -85t-128 -38t-100.5 34t-36 90.5z" />
<glyph unicode="z" horiz-adv-x="1054" d="M92 -2v49l647 887l-516 -6l-69 -217l-54 2l2 288l863 5v-50l-641 -886l499 6l82 215h53l-14 -289z" />
<glyph unicode="{" horiz-adv-x="600" d="M45 494v55q176 0 176 209q0 76 -28.5 246t-28.5 249q0 350 385 351v-76q-123 0 -173 -59.5t-50 -150.5t32.5 -270.5t32.5 -264.5t-44 -161.5t-122 -101.5q80 -23 123 -98.5t43 -161.5t-32.5 -265t-32.5 -257q0 -225 223 -225v-74q-385 0 -385 350q0 78 28.5 249t28.5 247 q0 209 -176 209z" />
<glyph unicode="|" horiz-adv-x="493" d="M184 -594v2232h125v-2232h-125z" />
<glyph unicode="}" horiz-adv-x="600" d="M51 -487q223 0 223 225q0 78 -32.5 257t-32.5 265t43 162t123 98q-78 25 -122 101.5t-44 161.5t32.5 264.5t32.5 270.5t-50 150.5t-173 59.5v76q385 0 385 -351q0 -80 -28.5 -249.5t-28.5 -245.5q0 -209 176 -209v-55q-176 0 -176 -209q0 -76 28.5 -247t28.5 -249 q0 -350 -385 -350v74z" />
<glyph unicode="~" horiz-adv-x="1204" d="M115 406q61 94 122.5 144t149.5 50t236.5 -62.5t201.5 -62.5q94 0 179 129l83 -67q-41 -59 -69.5 -92t-79.5 -63t-92 -30t-79 9.5t-65 19.5q-102 35 -188 65.5t-138 30.5t-93 -37t-86 -106z" />
<glyph unicode="&#xa1;" horiz-adv-x="507" d="M141 752.5q0 50.5 34 84t85 33.5t85 -34.5t34 -84t-35 -85t-85 -35.5t-84 35.5t-34 86zM154 -284.5q0 182.5 17 396.5t32 302q4 27 22.5 37t28.5 10t31 -2q16 -567 84 -934l8 -49q-53 -8 -106.5 -8t-77.5 24q-39 41 -39 223.5z" />
<glyph unicode="&#xa2;" horiz-adv-x="1093" d="M113 686q0 221 117.5 361.5t322.5 162.5v179h92v-175q109 -4 215 -55q55 -27 88 -81t33 -125.5t-66 -98.5q-27 -10 -56.5 -10t-59.5 20q8 43 8 101.5t-37 111.5q-53 80 -152 80q-285 0 -284 -469q0 -229 66.5 -345t215.5 -116q190 0 306 185q45 -14 45 -43 q0 -49 -87 -117t-237 -80v-172h-92v170q-199 12 -318.5 153.5t-119.5 362.5z" />
<glyph unicode="&#xa3;" horiz-adv-x="1236" d="M96 698v68h221v59q0 575 478 576q121 0 201.5 -48t80.5 -128t-57 -119q-33 -23 -65.5 -23t-61.5 13q14 59 14 112.5t-31.5 95.5t-93 42t-107.5 -27t-73 -75t-44 -101t-26 -123q-12 -129 -12 -191v-63h359v-64h-357v-239q0 -70 -20.5 -128.5t-46 -91t-60.5 -57.5 q-43 -31 -82 -43q82 16 198 16.5t237.5 -11t190.5 -11.5t101.5 20.5t53.5 108.5l49 -8q-25 -184 -78 -229q-59 -53 -160 -54q-57 0 -194.5 19.5t-241.5 19.5t-198.5 -12t-118.5 -22l-27 -13l-25 70q133 88 172 192.5t45 348.5l2 120h-223z" />
<glyph unicode="&#xa4;" horiz-adv-x="1259" d="M143 295l140 135q-70 109 -70 253t74 253l-144 139l99 99l133 -144q106 78 251.5 78t256.5 -82l133 143l98 -98l-141 -137q74 -111 74 -254t-70 -252l141 -137l-98 -98l-131 141q-113 -82 -259.5 -82t-258.5 84l-129 -139zM336 687q0 -142 84 -232t211 -90t209 83.5 t82 222t-82 231.5t-214 93t-211 -83t-79 -225z" />
<glyph unicode="&#xa5;" horiz-adv-x="1540" d="M61 1319v49h553v-43l-157 -18l405 -613l350 578l-153 47v49h416v-49l-156 -49l-408 -666h310v-76h-310v-73h310v-74h-310v-313l179 -19v-49h-568v49l178 19v313h-288v74h288v73h-288v74h278l-473 703z" />
<glyph unicode="&#xa6;" horiz-adv-x="530" d="M193 279h145v-732h-145v732zM193 682v731h145v-731h-145z" />
<glyph unicode="&#xa7;" horiz-adv-x="1009" d="M119 977q0 201 113.5 327t308.5 126q135 0 239.5 -63.5t104.5 -172.5q0 -66 -45 -96q-27 -18 -62 -18.5t-76 12.5q2 20 3 36q0 113 -47.5 177.5t-138.5 64.5t-147.5 -46t-56.5 -126t59.5 -172t143.5 -178t168 -178t143.5 -212t59.5 -247q0 -217 -101.5 -359.5 t-318.5 -142.5q-143 0 -243.5 63.5t-100.5 172.5q0 68 45 96q25 16 59.5 16t77.5 -14q-2 -18 -2 -35q0 -109 48 -175t134 -66t140.5 49t54.5 132t-58.5 173t-140.5 180t-164.5 187.5t-141 225.5t-58.5 263zM203 1001.5q0 -77.5 19.5 -140t64.5 -128.5q61 -92 163.5 -206.5 t154.5 -180t103.5 -172.5t55.5 -205q37 80 37 187.5t-45 204t-90 149.5t-137.5 151.5t-137.5 151.5t-96 152.5t-59 199.5q-33 -86 -33 -163.5z" />
<glyph unicode="&#xa8;" horiz-adv-x="974" d="M162 1269q0 50 33.5 85t84 35t84 -35t33.5 -84t-33.5 -84t-84 -35t-84 34t-33.5 84zM543 1269q0 50 33.5 85t84 35t84 -35t33.5 -84t-33.5 -84t-84 -35t-84 34t-33.5 84z" />
<glyph unicode="&#xa9;" horiz-adv-x="1613" d="M115 678q0 303 195.5 508t495.5 205t496.5 -206t196.5 -509t-194.5 -505t-495.5 -202t-497.5 203t-196.5 506zM213 685q0 -267 168 -451.5t433 -184.5t427 178.5t162 446.5t-168 454.5t-432 186.5t-427 -181.5t-163 -448.5zM414 670.5q0 197.5 116.5 316.5t315.5 119 q98 0 186 -41q47 -23 77 -69t30 -107.5t-54 -81.5q-23 -10 -48 -10t-50 18q8 37 8 86t-30 92q-45 66 -127 66q-240 0 -240 -391q0 -193 55.5 -289t180.5 -96q162 0 256 153q39 -12 38 -35q0 -27 -31.5 -63.5t-110.5 -70.5t-179 -34q-176 0 -284.5 120t-108.5 317.5z" />
<glyph unicode="&#xaa;" horiz-adv-x="800" d="M111 920q0 90 96 139t270 51v115q0 156 -104 155q-55 0 -81 -41t-26 -79.5t4 -67.5q-20 -14 -41.5 -14t-42.5 8q-47 18 -47 63q0 86 74 125t154 39q131 0 185 -52t54 -165v-389l94 -4v-27l-215 -12l-8 102q-63 -100 -184 -100q-182 0 -182 154zM248 920q0 -115 84 -115 q55 0 99 42t46 111v125q-229 -3 -229 -163z" />
<glyph unicode="&#xab;" horiz-adv-x="1001" d="M74 473q168 137 225 199q96 104 141 168l17 22q43 -31 43 -76t-37 -101t-81 -97t-85 -77t-43 -38q82 -53 160 -150.5t78 -151.5t-60 -83q-41 86 -156 207q-72 76 -170 151zM436 473q168 137 226 199q96 104 141 168l16 22q43 -31 43 -76t-37 -101t-81 -97t-85 -77 t-43 -38q82 -53 160 -150.5t78 -151.5t-59 -83q-41 86 -156 207q-72 76 -170 151z" />
<glyph unicode="&#xac;" horiz-adv-x="1234" d="M156 543v133h921l2 -397h-145v264h-778z" />
<glyph unicode="&#xad;" horiz-adv-x="872" d="M139 481v135h594v-135h-594z" />
<glyph unicode="&#xae;" horiz-adv-x="1613" d="M115 678q0 303 195.5 508t495.5 205t496.5 -206t196.5 -509t-194.5 -505t-495.5 -202t-497.5 203t-196.5 506zM213 685q0 -267 168 -451.5t433 -184.5t427 178.5t162 446.5t-168 454.5t-432 186.5t-427 -181.5t-163 -448.5zM444 1071v31q111 -4 158 -4h60l145 4 q283 0 283 -215q0 -90 -63.5 -149.5t-164.5 -59.5l-31 2v-2q135 -18 185.5 -86t50.5 -181.5t31 -127.5q14 -10 41.5 -10.5t72.5 16.5v-31q-74 -25 -122 -25q-123 0 -152 105q-10 39 -10 113l2 30q0 184 -193 185h-73v-365l92 -10v-33l-144 2q-104 0 -159 -2v31l84 12v756z M664 702h65q223 0 223 185q0 94 -43 136t-141 42q-35 0 -104 -4v-359z" />
<glyph unicode="&#xaf;" horiz-adv-x="1101" d="M223 1245v119h695v-119h-695z" />
<glyph unicode="&#xb0;" horiz-adv-x="677" d="M98 1190q0 98 72 165.5t175.5 67.5t170 -64.5t66.5 -163.5t-70 -164.5t-179.5 -65.5t-172 63.5t-62.5 161.5zM190 1190.5q0 -66.5 41 -107.5t109 -41t107.5 42t39.5 109t-40.5 108.5t-106.5 41.5t-108 -43t-42 -109.5z" />
<glyph unicode="&#xb1;" horiz-adv-x="1075" d="M137 0v113h801v-113h-801zM139 539v112h338v340h113v-340h342v-112h-342v-340h-113v340h-338z" />
<glyph unicode="&#xb2;" horiz-adv-x="849" d="M129 604v80q141 82 260 221t119 306t-107 167q-57 0 -87.5 -52t-30.5 -101t4 -86q-37 -18 -63.5 -18.5t-43.5 9.5q-43 23 -43 84q0 92 78 148.5t189.5 56.5t194.5 -58t83 -169t-73.5 -212t-152.5 -160.5t-159 -102.5h352l41 112h37l-12 -225h-586z" />
<glyph unicode="&#xb3;" horiz-adv-x="778" d="M99 739.5q-1 61.5 36 83.5q18 14 43.5 14t54.5 -10q-4 -23 -4 -61.5t31 -87.5t102.5 -49t109.5 50t38 136t-51 132t-135 46h-68v31q98 4 164.5 57.5t66.5 139.5t-30.5 121.5t-78.5 35.5t-77 -37.5t-29 -74.5t7 -66q-33 -14 -56 -14q-76 0 -76 78q0 70 70 112.5t169 42.5 t179 -48t80 -148q0 -59 -40 -112.5t-122 -80.5q184 -43 185 -203q0 -106 -83 -173.5t-217.5 -67.5t-201 46t-67.5 107.5z" />
<glyph unicode="&#xb4;" horiz-adv-x="798" d="M229 1169q240 350 265 385q109 -70 108 -118q0 -23 -29 -54q-162 -150 -299 -256q-37 33 -45 43z" />
<glyph unicode="&#xb6;" horiz-adv-x="1079" d="M70 1017.5q0 149.5 97 251t290 101.5q301 0 514 -2v-49l-142 -14v-1534h-114v1529h-94v-1529h-121v901q-43 -6 -84 -6q-186 0 -266 101t-80 250.5z" />
<glyph unicode="&#xb7;" horiz-adv-x="466" d="M139 685q0 40 27 67.5t66.5 27.5t67.5 -28.5t28 -66.5t-27 -65.5t-67.5 -27.5t-67.5 26.5t-27 66.5z" />
<glyph unicode="&#xb8;" horiz-adv-x="688" d="M129 -393l16 35q78 -29 146 -29q137 0 137 119q0 96 -80 96q-43 0 -86 -14l-43 18l105 184h57l-86 -149l4 -6q45 25 116.5 24.5t124 -41.5t52.5 -106q0 -96 -75 -139t-167 -43t-221 51z" />
<glyph unicode="&#xb9;" horiz-adv-x="632" d="M90 1251l250 156h80v-739l117 -13v-39h-381v39l114 13v596l-153 -70z" />
<glyph unicode="&#xba;" horiz-adv-x="815" d="M100 1089.5q0 141.5 82 232.5t224.5 91t225.5 -91t83 -232.5t-83 -232.5t-225.5 -91t-224.5 91t-82 232.5zM248 1090q0 -289 158 -289q88 0 124.5 73.5t36.5 218t-35.5 215t-124 70.5t-124 -71.5t-35.5 -216.5z" />
<glyph unicode="&#xbb;" horiz-adv-x="1001" d="M139 786q0 45 43 76q106 -150 232 -260q63 -55 106 -92l45 -37q-188 -143 -293 -285q-39 -51 -51 -75l-14 -25q-59 29 -59.5 83t59.5 128q96 121 178 174q-2 2 -43 38t-85 77t-81 97t-37 101zM502 786q0 45 43 76q106 -150 233 -260q61 -55 107 -92l43 -37 q-188 -143 -293 -285q-39 -51 -53 -75l-13 -25q-59 29 -59 83t59 128q96 121 179 174q-2 2 -43 38t-85.5 77t-81 97t-36.5 101z" />
<glyph unicode="&#xbc;" horiz-adv-x="1519" d="M76 1251l250 156h80v-739l116 -13v-39h-381v39l115 13v596l-154 -70zM283 -18l833 1386h103l-832 -1386h-104zM784 301l390 492h104v-455h168v-76h-168v-211l117 -12v-39h-381v39l114 12v211h-333zM899 336h229v291z" />
<glyph unicode="&#xbd;" horiz-adv-x="1622" d="M78 1251l250 156h80v-739l116 -13v-39h-381v39l115 13v596l-154 -70zM238 -18l833 1386h103l-832 -1386h-104zM938 0v80q141 82 260 221t119 306t-107 167q-57 0 -87.5 -52t-30.5 -101.5t4 -85.5q-37 -18 -63.5 -18.5t-45.5 9.5q-41 23 -41 84q0 92 78 148.5t189.5 56.5 t194.5 -58.5t83 -169t-74 -212t-152.5 -160.5t-158.5 -102h352l41 112h37l-12 -225h-586z" />
<glyph unicode="&#xbe;" d="M85 739.5q-1 61.5 34 83.5q20 14 45.5 14t54.5 -10q-4 -23 -4 -61.5t30.5 -87.5t102.5 -49t110 50t38 136t-51.5 132t-135.5 46h-67v31q98 4 164.5 57.5t66.5 139.5t-30.5 121.5t-79 35.5t-77 -37.5t-28.5 -74.5t6 -66q-35 -14 -57 -14q-74 0 -74 78q0 70 69.5 112.5 t169 42.5t179.5 -48t80 -148q0 -59 -40 -112.5t-122 -80.5q184 -43 184 -203q0 -106 -83 -173.5t-217 -67.5t-200.5 46t-67.5 107.5zM340 -18l834 1386h102l-832 -1386h-104zM844 301l389 492h104v-455h168v-76h-168v-211l117 -12v-39h-381v39l115 12v211h-334zM958 336h230 v291z" />
<glyph unicode="&#xbf;" horiz-adv-x="894" d="M76 266q0 92 62.5 184.5t135.5 153.5q199 166 199 250q2 6 2 22.5t-18 65.5q45 14 78 14q86 0 86 -98q0 -127 -125 -252l-103 -102q-123 -123 -123 -258q0 -211 166 -211q94 0 154 80q47 61 47 159q0 33 -6 70q37 12 69.5 12t57.5 -16q51 -29 51 -98q0 -121 -108.5 -195 t-266.5 -74q-358 0 -358 293zM403 1279q0 50 35 86t87.5 36t87 -35t34.5 -87t-34.5 -88t-86 -36t-87.5 37t-36 87z" />
<glyph unicode="&#xc0;" horiz-adv-x="1386" d="M-20 0v49l155 53l504 1266h100l535 -1300l158 -19v-49h-553v43l159 25l-180 471h-461l-172 -437l183 -53v-49h-428zM426 614h401l-200 498zM444 1718q0 55 84 133q88 -84 330 -329l-35 -52q-147 76 -342 199q-37 29 -37 49z" />
<glyph unicode="&#xc1;" horiz-adv-x="1386" d="M-20 0v49l155 53l504 1266h100l535 -1300l158 -19v-49h-553v43l159 25l-180 471h-461l-172 -437l183 -53v-49h-428zM426 614h401l-200 498zM528 1522q242 245 330 329q84 -78 84 -129q0 -25 -37 -53q-195 -123 -342 -199z" />
<glyph unicode="&#xc2;" horiz-adv-x="1386" d="M-20 0v49l155 53l504 1266h100l535 -1300l158 -19v-49h-553v43l159 25l-180 471h-461l-172 -437l183 -53v-49h-428zM367 1505l280 381h103l278 -381l-63 -39l-267 258l-268 -258zM426 614h401l-200 498z" />
<glyph unicode="&#xc3;" horiz-adv-x="1386" d="M-20 0v49l155 53l504 1266h100l535 -1300l158 -19v-49h-553v43l159 25l-180 471h-461l-172 -437l183 -53v-49h-428zM344 1546q12 92 70.5 152.5t140.5 60.5t178 -61q92 -63 137 -63.5t78 29.5t43 67h56q-13 -93 -71 -154t-135 -61t-175 59q-92 66 -140.5 65.5t-82 -29 t-44.5 -65.5h-55zM426 614h401l-200 498z" />
<glyph unicode="&#xc4;" horiz-adv-x="1386" d="M-20 0v49l155 53l504 1266h100l535 -1300l158 -19v-49h-553v43l159 25l-180 471h-461l-172 -437l183 -53v-49h-428zM381 1637.5q0 50.5 34 85t84 34.5t83.5 -34.5t33.5 -84t-33.5 -84t-83.5 -34.5t-84 33.5t-34 84zM426 614h401l-200 498zM762 1637.5q0 50.5 33.5 85 t84 34.5t84 -34.5t33.5 -84t-33.5 -84t-84 -34.5t-84 33.5t-33.5 84z" />
<glyph unicode="&#xc5;" horiz-adv-x="1386" d="M-20 0v49l155 53l504 1266h100l535 -1300l158 -19v-49h-553v43l159 25l-180 471h-461l-172 -437l183 -53v-49h-428zM426 614h401l-200 498zM473 1673q0 90 64.5 152.5t155.5 62.5t152.5 -59.5t61.5 -149.5t-64.5 -152.5t-154.5 -62.5t-152.5 59.5t-62.5 149.5z M573 1673.5q0 -55.5 34 -90.5t83 -35t83 35t34 88t-35 90t-83 37t-82 -34.5t-34 -90z" />
<glyph unicode="&#xc6;" horiz-adv-x="1839" d="M-86 0v41l170 55l790 1192v12l-178 23v49l981 -4v-291h-51l-70 217l-471 6v-550h414l64 151h41v-381h-43l-62 156h-414v-610l533 6l96 233h53l-24 -305h-1047v49l178 19v471h-397l-295 -441l168 -53v-45h-436zM528 610h346v549z" />
<glyph unicode="&#xc7;" horiz-adv-x="1449" d="M104 672q0 170 67 314t181 228q228 168 541 168l422 -18l12 -373h-65l-70 269q-111 47 -262 47q-248 0 -411 -163t-163 -474.5t159 -460t407 -148.5q166 0 297 50l75 235l58 -2l-13 -307q-236 -49 -404.5 -49t-278 18.5t-214 65.5t-177 120.5t-117 191.5t-44.5 288z M567 -393l17 35q78 -29 145 -29q137 0 137 119q0 96 -80 96q-43 0 -86 -14l-43 18l105 184h57l-86 -149l4 -6q45 25 117 24.5t124 -41.5t52 -106q0 -96 -74.5 -139t-167 -43t-221.5 51z" />
<glyph unicode="&#xc8;" horiz-adv-x="1222" d="M80 0v49l178 19v1232l-178 23v45h981l2 -291h-53l-70 217l-471 6v-550h414l63 151h41v-381h-43l-61 156h-414v-610l532 6l97 233h53l-25 -305h-1046zM362 1718q0 55 84 133q88 -84 330 -329l-35 -52q-147 76 -342 199q-37 29 -37 49z" />
<glyph unicode="&#xc9;" horiz-adv-x="1222" d="M80 0v49l178 19v1232l-178 23v45h981l2 -291h-53l-70 217l-471 6v-550h414l63 151h41v-381h-43l-61 156h-414v-610l532 6l97 233h53l-25 -305h-1046zM469 1522q242 245 330 329q84 -78 84 -129q0 -25 -37 -53q-195 -123 -342 -199z" />
<glyph unicode="&#xca;" horiz-adv-x="1222" d="M80 0v49l178 19v1232l-178 23v45h981l2 -291h-53l-70 217l-471 6v-550h414l63 151h41v-381h-43l-61 156h-414v-610l532 6l97 233h53l-25 -305h-1046zM301 1505l281 381h102l279 -381l-64 -39l-266 258l-268 -258z" />
<glyph unicode="&#xcb;" horiz-adv-x="1222" d="M80 0v49l178 19v1232l-178 23v45h981l2 -291h-53l-70 217l-471 6v-550h414l63 151h41v-381h-43l-61 156h-414v-610l532 6l97 233h53l-25 -305h-1046zM324 1637.5q0 50.5 33.5 85t84 34.5t84 -34.5t33.5 -84t-33.5 -84t-84 -34.5t-84 33.5t-33.5 84zM705 1637.5 q0 50.5 33.5 85t83.5 34.5t84 -34.5t34 -84t-34 -84t-84 -34.5t-83.5 33.5t-33.5 84z" />
<glyph unicode="&#xcc;" horiz-adv-x="727" d="M80 0v49l178 19v1232l-178 19v49h567v-49l-178 -19v-1232l178 -19v-49h-567zM139 1718q0 55 84 133q88 -84 330 -329l-35 -52q-147 76 -342 199q-37 29 -37 49z" />
<glyph unicode="&#xcd;" horiz-adv-x="727" d="M80 0v49l178 19v1232l-178 19v49h567v-49l-178 -19v-1232l178 -19v-49h-567zM182 1522q242 245 330 329q84 -78 84 -129q0 -25 -37 -53q-195 -123 -342 -199z" />
<glyph unicode="&#xce;" horiz-adv-x="727" d="M35 1505l280 381h103l278 -381l-63 -39l-266 258l-269 -258zM80 0v49l178 19v1232l-178 19v49h567v-49l-178 -19v-1232l178 -19v-49h-567z" />
<glyph unicode="&#xcf;" horiz-adv-x="727" d="M57 1637.5q0 50.5 34 85t84 34.5t84 -34.5t34 -84t-34 -84t-84 -34.5t-84 33.5t-34 84zM80 0v49l178 19v1232l-178 19v49h567v-49l-178 -19v-1232l178 -19v-49h-567zM438 1637.5q0 50.5 34 85t84 34.5t84 -34.5t34 -84t-34 -84t-84 -34.5t-84 33.5t-34 84z" />
<glyph unicode="&#xd0;" horiz-adv-x="1646" d="M135 647v90h184v559l-178 23v53q76 -4 217 -4h174l259 8q182 0 319 -30.5t252 -104.5q233 -149 233 -555q0 -686 -835 -686h-619v53l178 17v577h-184zM535 72l225 -6q211 8 311 53q272 125 275 565q0 172 -39 295t-83 182.5t-134.5 94t-131.5 38.5q-102 10 -208.5 10.5 t-214.5 -10.5v-557h313v-90h-313v-575z" />
<glyph unicode="&#xd1;" horiz-adv-x="1634" d="M78 1321v47h336l868 -1051v955l-158 47v49h414v-49l-143 -47v-1272h-113l-938 1124v-1024l170 -51v-49h-422v49l164 51v1200zM459 1546q12 92 73.5 152.5t147.5 60.5t186 -61q96 -63 143.5 -63.5t82 29.5t47.5 67h57q-12 -93 -73.5 -154t-142.5 -61t-183 59 q-100 66 -149.5 65.5t-85.5 -30t-46 -64.5h-57z" />
<glyph unicode="&#xd2;" d="M102 688q0 307 187.5 509t501 202t500 -202t186.5 -509t-186.5 -509t-500 -202t-501 202t-187.5 509zM352 688q1 -647 441 -647q434 0 434 647q0 311 -99.5 479t-337 168t-338 -167t-100.5 -480zM594 1718q0 55 84 133q88 -84 330 -329l-35 -52q-147 76 -342 199 q-37 29 -37 49z" />
<glyph unicode="&#xd3;" d="M102 688q0 307 187.5 509t501 202t500 -202t186.5 -509t-186.5 -509t-500 -202t-501 202t-187.5 509zM352 688q1 -647 441 -647q434 0 434 647q0 311 -99.5 479t-337 168t-338 -167t-100.5 -480zM610 1522q242 245 330 329q84 -78 84 -129q0 -25 -37 -53 q-195 -123 -342 -199z" />
<glyph unicode="&#xd4;" d="M102 688q0 307 187.5 509t501 202t500 -202t186.5 -509t-186.5 -509t-500 -202t-501 202t-187.5 509zM352 688q1 -647 441 -647q434 0 434 647q0 311 -99.5 479t-337 168t-338 -167t-100.5 -480zM465 1505l280 381h103l278 -381l-63 -39l-266 258l-269 -258z" />
<glyph unicode="&#xd5;" d="M102 688q0 307 187.5 509t501 202t500 -202t186.5 -509t-186.5 -509t-500 -202t-501 202t-187.5 509zM352 688q1 -647 441 -647q434 0 434 647q0 311 -99.5 479t-337 168t-338 -167t-100.5 -480zM434 1546q12 92 73.5 152.5t147.5 60.5t187 -61q96 -63 143 -63.5t82 29.5 t45 67h59q-14 -93 -75.5 -154t-141.5 -61t-182 59q-100 66 -149.5 65.5t-85 -30t-45.5 -64.5h-58z" />
<glyph unicode="&#xd6;" d="M102 688q0 307 187.5 509t501 202t500 -202t186.5 -509t-186.5 -509t-500 -202t-501 202t-187.5 509zM352 688q1 -647 441 -647q434 0 434 647q0 311 -99.5 479t-337 168t-338 -167t-100.5 -480zM473 1637.5q0 50.5 34 85t84 34.5t84 -34.5t34 -84t-34 -84t-84 -34.5 t-84 33.5t-34 84zM854 1637.5q0 50.5 34 85t84 34.5t84 -34.5t34 -84t-34 -84t-84 -34.5t-84 33.5t-34 84z" />
<glyph unicode="&#xd7;" horiz-adv-x="1144" d="M111 139l368 363l-360 360l98 99l361 -361l352 358l90 -92l-350 -356l366 -369l-98 -98l-367 367l-368 -363z" />
<glyph unicode="&#xd8;" d="M84 0l1348 1397l73 -72l-1282 -1325h-139zM102 688q0 307 187.5 509t501 202t500 -202t186.5 -509t-186.5 -509t-500 -202t-501 202t-187.5 509zM352 688q1 -647 441 -647q434 0 434 647q0 311 -99.5 479t-337 168t-338 -167t-100.5 -480z" />
<glyph unicode="&#xd9;" horiz-adv-x="1486" d="M55 1315v53h555v-53l-184 -15v-808q0 -229 89 -337t281.5 -108t286 102.5t93.5 348.5v790l-152 21v59h406v-63l-166 -17v-809q0 -154 -42 -247t-93.5 -142t-141.5 -82t-211 -33q-283 0 -421 114t-138 362v849zM520 1718q0 55 84 133q88 -84 330 -329l-35 -52 q-147 76 -342 199q-37 29 -37 49z" />
<glyph unicode="&#xda;" horiz-adv-x="1486" d="M55 1315v53h555v-53l-184 -15v-808q0 -229 89 -337t281.5 -108t286 102.5t93.5 348.5v790l-152 21v59h406v-63l-166 -17v-809q0 -154 -42 -247t-93.5 -142t-141.5 -82t-211 -33q-283 0 -421 114t-138 362v849zM608 1522q242 245 330 329q84 -78 84 -129q0 -25 -37 -53 q-195 -123 -342 -199z" />
<glyph unicode="&#xdb;" horiz-adv-x="1486" d="M55 1315v53h555v-53l-184 -15v-808q0 -229 89 -337t281.5 -108t286 102.5t93.5 348.5v790l-152 21v59h406v-63l-166 -17v-809q0 -154 -42 -247t-93.5 -142t-141.5 -82t-211 -33q-283 0 -421 114t-138 362v849zM438 1505l281 381h102l279 -381l-64 -39l-266 258l-268 -258 z" />
<glyph unicode="&#xdc;" horiz-adv-x="1486" d="M55 1315v53h555v-53l-184 -15v-808q0 -229 89 -337t281.5 -108t286 102.5t93.5 348.5v790l-152 21v59h406v-63l-166 -17v-809q0 -154 -42 -247t-93.5 -142t-141.5 -82t-211 -33q-283 0 -421 114t-138 362v849zM481 1637.5q0 50.5 34 85t84 34.5t84 -34.5t34 -84t-34 -84 t-84 -34.5t-84 33.5t-34 84zM862 1637.5q0 50.5 34 85t84 34.5t84 -34.5t34 -84t-34 -84t-84 -34.5t-84 33.5t-34 84z" />
<glyph unicode="&#xdd;" horiz-adv-x="1337" d="M-66 1323v45h553v-43l-157 -22l405 -609l350 578l-153 47v49h416v-49l-156 -49l-408 -666v-536l179 -19v-49h-568v49l178 19v520l-483 712zM557 1538q239 350 264 385q109 -70 109 -119q0 -23 -29 -53q-162 -150 -299 -256q-37 33 -45 43z" />
<glyph unicode="&#xde;" horiz-adv-x="1148" d="M80 0v49l178 19v1232l-178 19v49h567v-49l-178 -19v-225h154q211 0 335.5 -90t124.5 -267t-133 -282.5t-368 -105.5l-113 6v-268l178 -19v-49h-567zM469 412q47 -4 90 -4q141 0 223 78.5t82 222t-84 216t-215 72.5h-96v-585z" />
<glyph unicode="&#xdf;" horiz-adv-x="1269" d="M61 934v65h150v23q0 575 487 575q209 0 316.5 -83.5t107.5 -216t-141 -220.5q-59 -37 -119 -73q-141 -88 -141 -213q6 -84 55 -128.5t137 -76t124 -48t85 -51.5q94 -68 94.5 -205t-97 -219.5t-240 -82.5t-249 47t-106.5 135t115 114q35 -246 242 -245q74 0 130 46t56 150 q0 72 -59.5 120t-145.5 85t-120.5 55.5t-82.5 53.5q-92 72 -92 207q0 117 121 206q49 39 100 82q121 98 121 258q0 117 -63.5 180.5t-159.5 63.5q-102 0 -172 -76q-102 -115 -102 -499v-963h-342v49l141 10v875h-150z" />
<glyph unicode="&#xe0;" horiz-adv-x="1050" d="M82 221q2 158 158.5 236t447.5 78v176q0 260 -188 260q-96 0 -156 -80q-41 -55 -41 -137q0 -35 8 -74q-29 -20 -58.5 -20.5t-57.5 12.5q-66 25 -66 94q0 94 68 156q111 100 305 100t282 -83t88 -261v-621l172 -8l3 -47l-342 -25l-19 183q-94 -185 -321 -185 q-117 0 -200 64.5t-83 181.5zM270 1434q0 51 109 120q25 -35 264 -385q-8 -10 -45 -43q-137 106 -299 256q-29 31 -29 52zM283 221q0 -133 108 -158q25 -6 47 -6q78 0 162 66.5t88 179.5v176q-405 -4 -405 -258z" />
<glyph unicode="&#xe1;" horiz-adv-x="1050" d="M82 221q2 158 158.5 236t447.5 78v176q0 260 -188 260q-96 0 -156 -80q-41 -55 -41 -137q0 -35 8 -74q-29 -20 -58.5 -20.5t-57.5 12.5q-66 25 -66 94q0 94 68 156q111 100 305 100t282 -83t88 -261v-621l172 -8l3 -47l-342 -25l-19 183q-94 -185 -321 -185 q-117 0 -200 64.5t-83 181.5zM283 221q0 -133 108 -158q25 -6 47 -6q78 0 162 66.5t88 179.5v176q-405 -4 -405 -258zM338 1169q239 350 264 385q109 -70 109 -118q0 -23 -29 -54q-162 -150 -299 -256q-37 33 -45 43z" />
<glyph unicode="&#xe2;" horiz-adv-x="1050" d="M82 221q2 158 158.5 236t447.5 78v176q0 260 -188 260q-96 0 -156 -80q-41 -55 -41 -137q0 -35 8 -74q-29 -20 -58.5 -20.5t-57.5 12.5q-66 25 -66 94q0 94 68 156q111 100 305 100t282 -83t88 -261v-621l172 -8l3 -47l-342 -25l-19 183q-94 -185 -321 -185 q-117 0 -200 64.5t-83 181.5zM176 1137l281 381h102l279 -381l-64 -39l-266 258l-268 -258zM283 221q0 -133 108 -158q25 -6 47 -6q78 0 162 66.5t88 179.5v176q-405 -4 -405 -258z" />
<glyph unicode="&#xe3;" horiz-adv-x="1050" d="M82 221q2 158 158.5 236t447.5 78v176q0 260 -188 260q-96 0 -156 -80q-41 -55 -41 -137q0 -35 8 -74q-29 -20 -58.5 -20.5t-57.5 12.5q-66 25 -66 94q0 94 68 156q111 100 305 100t282 -83t88 -261v-621l172 -8l3 -47l-342 -25l-19 183q-94 -185 -321 -185 q-117 0 -200 64.5t-83 181.5zM156 1178q12 92 70.5 152.5t140.5 60.5t178 -62q92 -63 137 -63t78 29.5t43 66.5h55q-12 -92 -70.5 -153.5t-135.5 -61.5t-175 59q-92 66 -140 66t-82 -29t-44 -65h-55zM283 221q0 -133 108 -158q25 -6 47 -6q78 0 162 66.5t88 179.5v176 q-405 -4 -405 -258z" />
<glyph unicode="&#xe4;" horiz-adv-x="1050" d="M82 221q2 158 158.5 236t447.5 78v176q0 260 -188 260q-96 0 -156 -80q-41 -55 -41 -137q0 -35 8 -74q-29 -20 -58.5 -20.5t-57.5 12.5q-66 25 -66 94q0 94 68 156q111 100 305 100t282 -83t88 -261v-621l172 -8l3 -47l-342 -25l-19 183q-94 -185 -321 -185 q-117 0 -200 64.5t-83 181.5zM193 1269q0 50 33.5 85t83.5 35t84 -35t34 -84t-34 -84t-84 -35t-83.5 34t-33.5 84zM283 221q0 -133 108 -158q25 -6 47 -6q78 0 162 66.5t88 179.5v176q-405 -4 -405 -258zM573 1269q0 50 34 85t84 35t84 -35t34 -84t-34 -84t-84 -35t-84 34 t-34 84z" />
<glyph unicode="&#xe5;" horiz-adv-x="1050" d="M82 221q2 158 158.5 236t447.5 78v176q0 260 -188 260q-96 0 -156 -80q-41 -55 -41 -137q0 -35 8 -74q-29 -20 -58.5 -20.5t-57.5 12.5q-66 25 -66 94q0 94 68 156q111 100 305 100t282 -83t88 -261v-621l172 -8l3 -47l-342 -25l-19 183q-94 -185 -321 -185 q-117 0 -200 64.5t-83 181.5zM283 221q0 -133 108 -158q25 -6 47 -6q78 0 162 66.5t88 179.5v176q-405 -4 -405 -258zM299 1345.5q0 90.5 64.5 153t155.5 62.5t152.5 -59.5t61.5 -149.5t-64.5 -152.5t-154.5 -62.5t-152.5 59t-62.5 149.5zM399 1345.5q0 -55.5 34 -90 t83 -34.5t83 34.5t34 88t-35 90t-83 36.5t-82 -34.5t-34 -90z" />
<glyph unicode="&#xe6;" horiz-adv-x="1601" d="M88 221q2 152 149.5 230.5t419.5 83.5v182q-2 127 -43 190.5t-135 63.5t-149 -82q-39 -55 -39 -112.5t8 -96.5q-29 -20 -58.5 -20.5t-58.5 12.5q-66 25 -65 94q0 94 67 156q111 100 293 100q256 0 320 -139q102 139 329 139q184 0 283.5 -93t99.5 -259q0 -49 -8 -99h-641 v-71q0 -229 65.5 -347t215.5 -118q190 0 305 184q45 -14 45 -44t-38 -74t-131 -84t-214 -40q-256 0 -383 228q-104 -229 -354 -230q-117 0 -200 64.5t-83 181.5zM289 221q0 -133 108 -158q25 -6 47 -6q76 0 156 62.5t92 161.5q-31 84 -35 196q-368 -14 -368 -256zM866 645 h445q4 37 4 72q0 90 -35 155q-49 92 -156 93q-221 0 -258 -320z" />
<glyph unicode="&#xe7;" horiz-adv-x="1040" d="M94 499.5q0 235.5 140 379t376 143.5q115 0 221 -49q59 -27 95.5 -82t36.5 -129t-66 -100q-27 -10 -56.5 -10.5t-60.5 20.5q8 43 8 101t-36 112q-53 80 -152 80q-285 0 -285 -469q0 -229 67 -345t216 -116q190 0 305 184q45 -14 45 -44t-38 -74t-131 -84t-214 -40 q-211 0 -341 143.5t-130 379zM352 -393l17 35q78 -29 145 -29q137 0 137 119q0 96 -80 96q-43 0 -86 -14l-43 18l105 184h57l-86 -149l4 -6q45 25 117 24.5t124 -41.5t52 -106q0 -96 -74.5 -139t-168 -43t-220.5 51z" />
<glyph unicode="&#xe8;" horiz-adv-x="1077" d="M94 499.5q0 235.5 136.5 379t343 143.5t309 -93t102.5 -259q0 -49 -8 -99h-662v-71q0 -229 65.5 -347t215.5 -118q211 0 326 184q45 -14 45 -43q0 -51 -95 -119q-45 -33 -126.5 -56.5t-182.5 -23.5q-211 0 -340 143.5t-129 379zM322 645h464q4 35 5 68q0 94 -39 161 q-53 91 -172 91q-221 0 -258 -320zM360 1434q0 51 109 120q25 -35 264 -385q-8 -10 -45 -43q-137 106 -299 256q-29 31 -29 52z" />
<glyph unicode="&#xe9;" horiz-adv-x="1077" d="M94 499.5q0 235.5 136.5 379t343 143.5t309 -93t102.5 -259q0 -49 -8 -99h-662v-71q0 -229 65.5 -347t215.5 -118q211 0 326 184q45 -14 45 -43q0 -51 -95 -119q-45 -33 -126.5 -56.5t-182.5 -23.5q-211 0 -340 143.5t-129 379zM322 645h464q4 35 5 68q0 94 -39 161 q-53 91 -172 91q-221 0 -258 -320zM369 1169q239 350 264 385q109 -70 108 -118q0 -23 -28 -54q-162 -150 -299 -256q-37 33 -45 43z" />
<glyph unicode="&#xea;" horiz-adv-x="1077" d="M94 499.5q0 235.5 136.5 379t343 143.5t309 -93t102.5 -259q0 -49 -8 -99h-662v-71q0 -229 65.5 -347t215.5 -118q211 0 326 184q45 -14 45 -43q0 -51 -95 -119q-45 -33 -126.5 -56.5t-182.5 -23.5q-211 0 -340 143.5t-129 379zM252 1137l280 381h103l278 -381l-63 -39 l-266 258l-269 -258zM322 645h464q4 35 5 68q0 94 -39 161q-53 91 -172 91q-221 0 -258 -320z" />
<glyph unicode="&#xeb;" horiz-adv-x="1077" d="M94 499.5q0 235.5 136.5 379t343 143.5t309 -93t102.5 -259q0 -49 -8 -99h-662v-71q0 -229 65.5 -347t215.5 -118q211 0 326 184q45 -14 45 -43q0 -51 -95 -119q-45 -33 -126.5 -56.5t-182.5 -23.5q-211 0 -340 143.5t-129 379zM264 1269q0 50 34 85t84 35t84 -35t34 -84 t-34 -84t-84 -35t-84 34t-34 84zM322 645h464q4 35 5 68q0 94 -39 161q-53 91 -172 91q-221 0 -258 -320zM645 1269q0 50 34 85t84 35t84 -35t34 -84t-34 -84t-84 -35t-84 34t-34 84z" />
<glyph unicode="&#xec;" horiz-adv-x="602" d="M6 1434q0 51 109 120q25 -35 264 -385q-8 -10 -45 -43q-137 106 -299 256q-29 31 -29 52zM37 936v47l381 27v-951l135 -10v-49h-471v49l135 10v871z" />
<glyph unicode="&#xed;" horiz-adv-x="602" d="M37 936v47l381 27v-951l135 -10v-49h-471v49l135 10v871zM233 1169q240 350 265 385q109 -70 108 -118q0 -23 -28 -54q-162 -150 -299 -256q-37 33 -46 43z" />
<glyph unicode="&#xee;" horiz-adv-x="602" d="M-37 1137l281 381h102l279 -381l-64 -39l-266 258l-268 -258zM37 936v47l381 27v-951l135 -10v-49h-471v49l135 10v871z" />
<glyph unicode="&#xef;" horiz-adv-x="602" d="M-14 1269q0 50 33.5 85t84 35t84 -35t33.5 -84t-33.5 -84t-84 -35t-84 34t-33.5 84zM37 936v47l381 27v-951l135 -10v-49h-471v49l135 10v871zM367 1269q0 50 33.5 85t84 35t84 -35t33.5 -84t-33.5 -84t-84 -35t-84 34t-33.5 84z" />
<glyph unicode="&#xf0;" horiz-adv-x="1226" d="M92 499.5q0 227.5 137.5 375t374.5 147.5q68 0 128.5 -23.5t86.5 -48.5l27 -22q-20 76 -77.5 186.5t-98.5 159.5l-129 -94l-43 57l135 98q-121 139 -287 236l37 55q55 -14 183 -90t169 -121l139 101l39 -56l-125 -92q170 -176 248 -374.5t78 -455.5t-136 -409 t-373.5 -152t-375 147.5t-137.5 375zM315 500q0 -473 289 -473q154 0 223.5 136t69.5 326.5t-45 335.5q-45 63 -111.5 104.5t-136.5 41.5q-156 0 -222.5 -121t-66.5 -350z" />
<glyph unicode="&#xf1;" horiz-adv-x="1271" d="M43 934v47l367 25l-11 -222l19 -2q92 238 370 238q139 0 225.5 -83t86.5 -237q0 -264 -17 -641l142 -10v-49h-453v49l111 8q16 463 16 555.5t-14 165.5q-27 160 -168 160q-131 0 -215 -108.5t-84 -235.5v-535l153 -10v-49h-489v49l135 10v867zM287 1178q12 92 70.5 152.5 t140.5 60.5t178 -62q92 -63 137 -63t78 29.5t43 66.5h55q-12 -92 -70.5 -153.5t-135 -61.5t-175.5 59q-92 66 -140 66t-82 -29t-44 -65h-55z" />
<glyph unicode="&#xf2;" horiz-adv-x="1206" d="M92 499.5q0 227.5 137.5 375t374 147.5t373.5 -147.5t137 -375t-137 -375t-373.5 -147.5t-374 147.5t-137.5 375zM315 500q0 -473 288 -473t288 473q0 229 -65.5 350t-221 121t-222.5 -121t-67 -350zM362 1434q0 51 109 120q25 -35 264 -385q-8 -10 -45 -43 q-137 106 -299 256q-29 31 -29 52z" />
<glyph unicode="&#xf3;" horiz-adv-x="1206" d="M92 499.5q0 227.5 137.5 375t374 147.5t373.5 -147.5t137 -375t-137 -375t-373.5 -147.5t-374 147.5t-137.5 375zM315 500q0 -473 288 -473t288 473q0 229 -65.5 350t-221 121t-222.5 -121t-67 -350zM469 1169q239 350 264 385q109 -70 109 -118q0 -23 -29 -54 q-162 -150 -299 -256q-37 33 -45 43z" />
<glyph unicode="&#xf4;" horiz-adv-x="1206" d="M92 499.5q0 227.5 137.5 375t374 147.5t373.5 -147.5t137 -375t-137 -375t-373.5 -147.5t-374 147.5t-137.5 375zM272 1137l281 381h102l279 -381l-64 -39l-266 258l-268 -258zM315 500q0 -473 288 -473t288 473q0 229 -65.5 350t-221 121t-222.5 -121t-67 -350z" />
<glyph unicode="&#xf5;" horiz-adv-x="1206" d="M92 499.5q0 227.5 137.5 375t374 147.5t373.5 -147.5t137 -375t-137 -375t-373.5 -147.5t-374 147.5t-137.5 375zM252 1178q12 92 70.5 152.5t140.5 60.5t178 -62q92 -63 137 -63t78 29.5t43 66.5h55q-12 -92 -70.5 -153.5t-135 -61.5t-175.5 59q-92 66 -140 66t-82 -29 t-44 -65h-55zM315 500q0 -473 288 -473t288 473q0 229 -65.5 350t-221 121t-222.5 -121t-67 -350z" />
<glyph unicode="&#xf6;" horiz-adv-x="1206" d="M92 499.5q0 227.5 137.5 375t374 147.5t373.5 -147.5t137 -375t-137 -375t-373.5 -147.5t-374 147.5t-137.5 375zM299 1267q0 50 34 84.5t84 34.5t84 -34.5t34 -83.5t-34 -84t-84 -35t-84 34t-34 84zM315 500q0 -473 288 -473t288 473q0 229 -65.5 350t-221 121 t-222.5 -121t-67 -350zM680 1267q0 50 34 84.5t84 34.5t83.5 -34.5t33.5 -83.5t-33.5 -84t-83.5 -35t-84 34t-34 84z" />
<glyph unicode="&#xf7;" horiz-adv-x="1050" d="M137 406v112h776v-112h-776zM408 166q0 47 33.5 81t80.5 34t80 -33t33 -82t-34 -82t-82 -33t-79.5 34t-31.5 81zM408 760q0 47 33.5 80.5t80.5 33.5t80 -32.5t33 -81.5t-34 -82t-82 -33t-79.5 34t-31.5 81z" />
<glyph unicode="&#xf8;" horiz-adv-x="1206" d="M92 499.5q0 227.5 137.5 375t374 147.5t373.5 -147.5t137 -375t-137 -375t-373.5 -147.5t-374 147.5t-137.5 375zM104 33l895 997l70 -65l-901 -996zM315 500q0 -473 288 -473t288 473q0 229 -65.5 350t-221 121t-222.5 -121t-67 -350z" />
<glyph unicode="&#xf9;" horiz-adv-x="1245" d="M27 942v47l364 23q-14 -541 -14 -736q0 -117 43 -174t144.5 -57t191.5 113.5t90 199.5v576l-170 8v47l371 23v-949l174 -8l2 -47l-369 -24l14 221h-24q-106 -229 -340 -230q-328 0 -328 316q0 231 14 643zM346 1434q0 51 109 120q25 -35 264 -385q-8 -10 -45 -43 q-137 106 -299 256q-29 31 -29 52z" />
<glyph unicode="&#xfa;" horiz-adv-x="1245" d="M27 942v47l364 23q-14 -541 -14 -736q0 -117 43 -174t144.5 -57t191.5 113.5t90 199.5v576l-170 8v47l371 23v-949l174 -8l2 -47l-369 -24l14 221h-24q-106 -229 -340 -230q-328 0 -328 316q0 231 14 643zM453 1169q239 350 264 385q109 -70 108 -118q0 -23 -28 -54 q-162 -150 -299 -256q-37 33 -45 43z" />
<glyph unicode="&#xfb;" horiz-adv-x="1245" d="M27 942v47l364 23q-14 -541 -14 -736q0 -117 43 -174t144.5 -57t191.5 113.5t90 199.5v576l-170 8v47l371 23v-949l174 -8l2 -47l-369 -24l14 221h-24q-106 -229 -340 -230q-328 0 -328 316q0 231 14 643zM250 1137l280 381h103l278 -381l-63 -39l-266 258l-269 -258z " />
<glyph unicode="&#xfc;" horiz-adv-x="1245" d="M27 942v47l364 23q-14 -541 -14 -736q0 -117 43 -174t144.5 -57t191.5 113.5t90 199.5v576l-170 8v47l371 23v-949l174 -8l2 -47l-369 -24l14 221h-24q-106 -229 -340 -230q-328 0 -328 316q0 231 14 643zM289 1269q0 50 33.5 85t84 35t84 -35t33.5 -84t-33.5 -84 t-84 -35t-84 34t-33.5 84zM670 1269q0 50 33.5 85t84 35t84 -35t33.5 -84t-33.5 -84t-84 -35t-84 34t-33.5 84z" />
<glyph unicode="&#xfd;" horiz-adv-x="1075" d="M0 -416.5q0 56.5 51 113.5q57 -66 129 -66q102 0 176 89.5t144 279.5l-394 934l-104 12v53h436v-53l-141 -12l293 -715l252 688l-164 39v53h393v-53l-143 -39l-346 -907q-37 -94 -57.5 -145.5t-66.5 -138.5t-88 -134t-105.5 -85t-128 -38t-100.5 34t-36 90.5zM426 1169 q239 350 264 385q109 -70 109 -118q0 -23 -29 -54q-162 -150 -299 -256q-37 33 -45 43z" />
<glyph unicode="&#xfe;" horiz-adv-x="1232" d="M-16 1526l383 43l-2 -439q0 -209 -11 -296h19q55 90 153.5 139t210.5 49q170 0 285 -118t115 -373t-137.5 -405.5t-391.5 -150.5q-127 0 -239 60v-488l143 -10v-49h-473v49l127 10v1923l-180 9zM365 682l4 -569q98 -76 243 -76q78 0 134.5 32.5t88 82t50.5 124.5 q27 121 26.5 305.5t-64 280.5t-178 96t-209.5 -97t-95 -179z" />
<glyph unicode="&#xff;" horiz-adv-x="1075" d="M0 -416.5q0 56.5 51 113.5q57 -66 129 -66q102 0 176 89.5t144 279.5l-394 934l-104 12v53h436v-53l-141 -12l293 -715l252 688l-164 39v53h393v-53l-143 -39l-346 -907q-37 -94 -57.5 -145.5t-66.5 -138.5t-88 -134t-105.5 -85t-128 -38t-100.5 34t-36 90.5zM244 1269 q0 50 33.5 85t84 35t84 -35t33.5 -84t-33.5 -84t-84 -35t-84 34t-33.5 84zM625 1269q0 50 33.5 85t84 35t84 -35t33.5 -84t-33.5 -84t-84 -35t-84 34t-33.5 84z" />
<glyph unicode="&#x152;" horiz-adv-x="2107" d="M104 672q0 170 67 314t181 228q227 168 541 168q86 0 246 -12l807 -2l2 -291h-54l-69 217l-471 6v-550h413l64 151h41v-381h-43l-62 156h-413v-610l532 6l96 233h54l-25 -305h-901q-106 -12 -225 -12t-228.5 18.5t-214 65.5t-177 120.5t-117 191.5t-44.5 288zM356 669.5 q0 -311.5 159 -460t407 -148.5q121 0 221 25v1192q-92 29 -213 29q-248 0 -411 -163t-163 -474.5z" />
<glyph unicode="&#x153;" horiz-adv-x="1859" d="M92 499.5q0 227.5 137.5 375t384 147.5t379.5 -193q133 193 371 193q199 0 301 -93t102 -259q0 -49 -8 -99h-661v-71q0 -229 65.5 -347t214.5 -118q211 0 326 184q45 -14 45 -43q0 -51 -94 -119q-45 -33 -127 -56.5t-182 -23.5q-232 1 -355 189q-135 -188 -379.5 -188.5 t-382 147t-137.5 375zM315 500q0 -473 288 -473t288 473q0 229 -65.5 350t-221 121t-222.5 -121t-67 -350zM1104 645h465q4 35 4 68q0 94 -39 161q-53 90 -172 91q-221 0 -258 -320z" />
<glyph unicode="&#x178;" horiz-adv-x="1337" d="M-66 1323v45h553v-43l-157 -22l405 -609l350 578l-153 47v49h416v-49l-156 -49l-408 -666v-536l179 -19v-49h-568v49l178 19v520l-483 712zM383 1637.5q0 50.5 34 85t84 34.5t83.5 -34.5t33.5 -84t-33.5 -84t-83.5 -34.5t-84 33.5t-34 84zM764 1637.5q0 50.5 33.5 85 t84 34.5t84 -34.5t33.5 -84t-33.5 -84t-84 -34.5t-84 33.5t-33.5 84z" />
<glyph unicode="&#x2c6;" horiz-adv-x="874" d="M100 1137l281 381h102l279 -381l-64 -39l-266 258l-268 -258z" />
<glyph unicode="&#x2dc;" horiz-adv-x="835" d="M74 1178q12 92 70.5 152.5t140.5 60.5t178 -62q92 -63 137 -63t78 29.5t43 66.5h55q-12 -92 -70.5 -153.5t-135 -61.5t-175.5 59q-92 66 -140 66t-82 -29t-44 -65h-55z" />
<glyph unicode="&#x2000;" horiz-adv-x="961" />
<glyph unicode="&#x2001;" horiz-adv-x="1923" />
<glyph unicode="&#x2002;" horiz-adv-x="961" />
<glyph unicode="&#x2003;" horiz-adv-x="1923" />
<glyph unicode="&#x2004;" horiz-adv-x="641" />
<glyph unicode="&#x2005;" horiz-adv-x="480" />
<glyph unicode="&#x2006;" horiz-adv-x="320" />
<glyph unicode="&#x2007;" horiz-adv-x="320" />
<glyph unicode="&#x2008;" horiz-adv-x="240" />
<glyph unicode="&#x2009;" horiz-adv-x="384" />
<glyph unicode="&#x200a;" horiz-adv-x="106" />
<glyph unicode="&#x2010;" horiz-adv-x="872" d="M139 481v135h594v-135h-594z" />
<glyph unicode="&#x2011;" horiz-adv-x="872" d="M139 481v135h594v-135h-594z" />
<glyph unicode="&#x2012;" horiz-adv-x="872" d="M139 481v135h594v-135h-594z" />
<glyph unicode="&#x2013;" horiz-adv-x="1302" d="M145 485v115h1012v-115h-1012z" />
<glyph unicode="&#x2014;" horiz-adv-x="2342" d="M145 485v115h2053v-115h-2053z" />
<glyph unicode="&#x2018;" horiz-adv-x="473" d="M104 1067q0 113 86 209t148 121l31 -43q-61 -33 -103.5 -94.5t-48.5 -126.5q16 10 52 10t62.5 -32t26.5 -83t-37.5 -83t-93 -32t-89.5 39t-34 115z" />
<glyph unicode="&#x2019;" horiz-adv-x="471" d="M121 956q61 33 103 94.5t48 127.5q-16 -10 -52 -10.5t-62.5 31.5t-26.5 83t38 83t93 32t89 -39t34 -115q0 -113 -86 -209t-147 -121z" />
<glyph unicode="&#x201a;" horiz-adv-x="491" d="M109 -231q61 33 103 94t48 127q-16 -10 -52 -10t-62.5 31.5t-26.5 82.5t38 83t93 32t89 -39t34 -115q0 -113 -86 -209t-148 -120z" />
<glyph unicode="&#x201c;" horiz-adv-x="802" d="M104 1097.5q0 69.5 29 124t72 89.5q82 66 133 86l31 -43q-61 -33 -103.5 -94.5t-48.5 -126.5q16 10 52 10t62.5 -32t26.5 -83t-37.5 -83t-92 -32t-89.5 57.5t-35 127zM434 1067q0 113 86 209t148 121l30 -43q-61 -33 -103 -94.5t-48 -126.5q16 10 52 10t62.5 -32 t26.5 -83t-38 -83t-93 -32t-89 39t-34 115z" />
<glyph unicode="&#x201d;" horiz-adv-x="800" d="M121 956q61 33 103 94.5t48 127.5q-16 -10 -52 -10.5t-62.5 31.5t-26.5 83t38 83t93 32t89 -39t34 -115q0 -113 -86 -209t-147 -121zM451 956q61 33 103 94.5t48 127.5q-16 -10 -52 -10.5t-62.5 31.5t-26.5 83t38 83t93 32t89 -39t34 -115q0 -113 -86 -209t-148 -121z " />
<glyph unicode="&#x201e;" horiz-adv-x="839" d="M109 -231q61 33 103 94t48 127q-16 -10 -52 -10t-62.5 31.5t-26.5 82.5t38 83t93 32t89 -39t34 -115q0 -113 -86 -209t-148 -120zM457 -231q61 33 103 94t48 127q-16 -10 -52 -10t-62.5 31.5t-26.5 82.5t38 83t93 32t89 -39t34 -115q0 -113 -86 -209t-148 -120z" />
<glyph unicode="&#x2022;" horiz-adv-x="919" d="M162 679q0 130 85 224t212 94t213 -95t86 -224t-87 -222.5t-212 -93.5t-211 93.5t-86 223.5z" />
<glyph unicode="&#x2026;" horiz-adv-x="1456" d="M117 97.5q0 52.5 34.5 88t86 35.5t87 -37t35.5 -87t-34.5 -86t-87 -36t-87 35t-34.5 87.5zM606 97.5q0 52.5 35 88t86 35.5t87 -37t36 -87t-35 -86t-87 -36t-87 35t-35 87.5zM1096 97.5q0 52.5 34.5 88t86 35.5t87 -37t35.5 -87t-34.5 -86t-87 -36t-87 35t-34.5 87.5z " />
<glyph unicode="&#x202f;" horiz-adv-x="384" />
<glyph unicode="&#x2039;" horiz-adv-x="638" d="M74 473q168 137 225 199q96 104 141 168l17 22q43 -31 43 -76t-37 -101t-81 -97t-85 -77t-43 -38q82 -53 160 -150.5t78 -151.5t-60 -83q-41 86 -156 207q-72 76 -170 151z" />
<glyph unicode="&#x203a;" horiz-adv-x="638" d="M139 786q0 45 43 76q106 -150 232 -260q63 -55 106 -92l45 -37q-188 -143 -293 -285q-39 -51 -51 -75l-14 -25q-59 29 -59.5 83t59.5 128q96 121 178 174q-2 2 -43 38t-85 77t-81 97t-37 101z" />
<glyph unicode="&#x205f;" horiz-adv-x="480" />
<glyph unicode="&#x20ac;" horiz-adv-x="1437" d="M86 489v76h123q-6 53 -6 109v51h-117v74h125q35 274 209 436t446 162q150 0 289 -66q74 -35 120 -105.5t46 -162.5t-80 -133q-39 -20 -77 -20.5t-72 24.5q12 61 12 115q0 109 -49 180q-72 106 -203 106q-358 0 -393 -536h569l-18 -74h-553v-51q0 -74 2 -109h508l-19 -76 h-483q23 -225 114 -333.5t275 -108.5q246 0 399 250q2 -2 8.5 -4t10.5 -4t9 -5t8 -5.5t7 -6.5t7 -6q6 -10 6 -20q0 -76 -134.5 -172.5t-364.5 -96.5t-387 136.5t-204 375.5h-133z" />
<glyph unicode="&#x2122;" horiz-adv-x="1443" d="M164 1260v110l225 2l223 -2v-110h-22l-33 83l-121 3v-443l70 -6v-18h-236v18l70 6v443l-119 -3l-35 -83h-22zM655 879v18l62 21l14 428l-61 8v16h145l166 -389l143 389h158v-16l-61 -8l14 -443l57 -6v-18h-207v18l56 6l-19 379l-147 -403h-41l-176 399l-15 -363l64 -18 v-18h-152z" />
<glyph unicode="&#x25fc;" horiz-adv-x="1003" d="M0 0v1004h1004v-1004h-1004z" />
<glyph unicode="&#xfb01;" horiz-adv-x="1261" d="M61 946v53h144q0 582 502 582q133 0 220 -48t87 -128t-62 -119q-35 -23 -69.5 -22.5t-65.5 12.5q14 55 14 108.5t-40.5 95.5t-118.5 42q-266 0 -266 -523h329l342 19v-959l135 -10v-49h-471v49l136 10v887h-471v-887l151 -10v-49h-489v49l137 8v889h-144z" />
<glyph unicode="&#xfb02;" horiz-adv-x="1282" d="M61 946v53h144q0 582 502 582q102 0 190 -37l190 31v-1512l142 -14v-49h-475v49l133 10l2 1213q0 137 -39 193.5t-156 56.5q-76 0 -132 -36t-84.5 -86t-47.5 -126q-25 -115 -24 -275h305v-53h-305v-887l151 -10v-49h-489v49l137 8v889h-144z" />
</font>
</defs>
</svg>
